<svg width="38" height="38" viewBox="0 0 38 38" fill="none" xmlns="http://www.w3.org/2000/svg">
<path d="M32.2036 19.2305C32.7891 18.6443 32.7885 17.6946 32.2024 17.1091C31.6162 16.5237 30.6665 16.5243 30.0811 17.1104L32.2036 19.2305ZM19.0009 30.326L17.9397 31.3862C18.2211 31.6678 18.6029 31.8261 19.001 31.826C19.3991 31.826 19.7808 31.6677 20.0622 31.3861L19.0009 30.326ZM7.91886 17.1103C7.33337 16.5242 6.38363 16.5237 5.79754 17.1092C5.21146 17.6947 5.21097 18.6445 5.79646 19.2305L7.91886 17.1103ZM20.5009 2C20.5009 1.17157 19.8293 0.5 19.0009 0.5C18.1725 0.5 17.5009 1.17157 17.5009 2H20.5009ZM17.5009 30.2914C17.5009 31.1198 18.1725 31.7914 19.0009 31.7914C19.8293 31.7914 20.5009 31.1198 20.5009 30.2914H17.5009ZM2 34.5C1.17157 34.5 0.5 35.1716 0.5 36C0.5 36.8284 1.17157 37.5 2 37.5V34.5ZM36 37.5C36.8284 37.5 37.5 36.8284 37.5 36C37.5 35.1716 36.8284 34.5 36 34.5V37.5ZM30.0811 17.1104L17.9396 29.266L20.0622 31.3861L32.2036 19.2305L30.0811 17.1104ZM20.0621 29.2659L7.91886 17.1103L5.79646 19.2305L17.9397 31.3862L20.0621 29.2659ZM17.5009 2V30.2914H20.5009V2H17.5009ZM2 37.5H36V34.5H2V37.5Z" fill="url(#paint0_linear_314_533)"/>
<defs>
<linearGradient id="paint0_linear_314_533" x1="19" y1="2" x2="19" y2="36" gradientUnits="userSpaceOnUse">
<stop stop-color="#04FF0E"/>
<stop offset="1" stop-color="#FFFF00"/>
</linearGradient>
</defs>
</svg>
