<svg width="27" height="27" viewBox="0 0 27 27" fill="none" xmlns="http://www.w3.org/2000/svg">
<path d="M18.776 8.10933V13.4427C18.776 15.4067 20.368 16.9987 22.332 16.9987C24.296 16.9987 25.888 15.4067 25.888 13.4427V13.444C25.888 6.57067 20.316 1 13.444 1C6.572 1 1 6.572 1 13.444C1 20.316 6.56933 25.8893 13.4427 25.8893C16.8787 25.8893 19.9907 24.496 22.2427 22.244M18.776 13.444C18.776 16.3895 16.3882 18.7773 13.4427 18.7773C10.4971 18.7773 8.10933 16.3895 8.10933 13.444C8.10933 10.4985 10.4971 8.11067 13.4427 8.11067C16.3882 8.11067 18.776 10.4985 18.776 13.444Z" stroke="white" stroke-width="2" stroke-miterlimit="10" stroke-linecap="round" stroke-linejoin="round"/>
</svg>
