<svg width="136" height="18" viewBox="0 0 136 18" fill="none" xmlns="http://www.w3.org/2000/svg">
<path d="M0.736 0.199999H2.512V15.464H11.92V17H0.736V0.199999ZM25.3133 11.216H14.7533C14.8493 12.528 15.3533 13.592 16.2653 14.408C17.1773 15.208 18.3293 15.608 19.7213 15.608C20.5053 15.608 21.2253 15.472 21.8813 15.2C22.5373 14.912 23.1053 14.496 23.5853 13.952L24.5453 15.056C23.9853 15.728 23.2813 16.24 22.4333 16.592C21.6013 16.944 20.6813 17.12 19.6733 17.12C18.3773 17.12 17.2253 16.848 16.2173 16.304C15.2253 15.744 14.4493 14.976 13.8893 14C13.3293 13.024 13.0493 11.92 13.0493 10.688C13.0493 9.456 13.3133 8.352 13.8413 7.376C14.3853 6.4 15.1213 5.64 16.0493 5.096C16.9933 4.552 18.0493 4.28 19.2173 4.28C20.3853 4.28 21.4333 4.552 22.3613 5.096C23.2893 5.64 24.0173 6.4 24.5453 7.376C25.0733 8.336 25.3373 9.44 25.3373 10.688L25.3133 11.216ZM19.2173 5.744C18.0013 5.744 16.9773 6.136 16.1453 6.92C15.3293 7.688 14.8653 8.696 14.7533 9.944H23.7053C23.5933 8.696 23.1213 7.688 22.2893 6.92C21.4733 6.136 20.4493 5.744 19.2173 5.744ZM32.8701 4.28C34.5181 4.28 35.7821 4.696 36.6621 5.528C37.5421 6.344 37.9821 7.56 37.9821 9.176V17H36.3501V15.032C35.9661 15.688 35.3981 16.2 34.6461 16.568C33.9101 16.936 33.0301 17.12 32.0061 17.12C30.5981 17.12 29.4781 16.784 28.6461 16.112C27.8141 15.44 27.3981 14.552 27.3981 13.448C27.3981 12.376 27.7821 11.512 28.5501 10.856C29.3341 10.2 30.5741 9.872 32.2701 9.872H36.2781V9.104C36.2781 8.016 35.9741 7.192 35.3661 6.632C34.7581 6.056 33.8701 5.768 32.7021 5.768C31.9021 5.768 31.1341 5.904 30.3981 6.176C29.6621 6.432 29.0301 6.792 28.5021 7.256L27.7341 5.984C28.3741 5.44 29.1421 5.024 30.0381 4.736C30.9341 4.432 31.8781 4.28 32.8701 4.28ZM32.2701 15.776C33.2301 15.776 34.0541 15.56 34.7421 15.128C35.4301 14.68 35.9421 14.04 36.2781 13.208V11.144H32.3181C30.1581 11.144 29.0781 11.896 29.0781 13.4C29.0781 14.136 29.3581 14.72 29.9181 15.152C30.4781 15.568 31.2621 15.776 32.2701 15.776ZM44.2424 6.848C44.6424 6 45.2344 5.36 46.0184 4.928C46.8184 4.496 47.8024 4.28 48.9704 4.28V5.936L48.5624 5.912C47.2344 5.912 46.1944 6.32 45.4424 7.136C44.6904 7.952 44.3144 9.096 44.3144 10.568V17H42.6104V4.376H44.2424V6.848ZM58.4877 4.28C60.0717 4.28 61.3277 4.744 62.2557 5.672C63.1997 6.584 63.6717 7.92 63.6717 9.68V17H61.9677V9.848C61.9677 8.536 61.6397 7.536 60.9837 6.848C60.3277 6.16 59.3917 5.816 58.1757 5.816C56.8157 5.816 55.7357 6.224 54.9357 7.04C54.1517 7.84 53.7597 8.952 53.7597 10.376V17H52.0557V4.376H53.6877V6.704C54.1517 5.936 54.7917 5.344 55.6077 4.928C56.4397 4.496 57.3997 4.28 58.4877 4.28ZM90.3231 4.28C91.9071 4.28 93.1471 4.736 94.0431 5.648C94.9551 6.56 95.4111 7.904 95.4111 9.68V17H93.7071V9.848C93.7071 8.536 93.3871 7.536 92.7471 6.848C92.1231 6.16 91.2351 5.816 90.0831 5.816C88.7711 5.816 87.7391 6.224 86.9871 7.04C86.2351 7.84 85.8591 8.952 85.8591 10.376V17H84.1551V9.848C84.1551 8.536 83.8351 7.536 83.1951 6.848C82.5711 6.16 81.6751 5.816 80.5071 5.816C79.2111 5.816 78.1791 6.224 77.4111 7.04C76.6591 7.84 76.2831 8.952 76.2831 10.376V17H74.5791V4.376H76.2111V6.68C76.6591 5.912 77.2831 5.32 78.0831 4.904C78.8831 4.488 79.8031 4.28 80.8431 4.28C81.8991 4.28 82.8111 4.504 83.5791 4.952C84.3631 5.4 84.9471 6.064 85.3311 6.944C85.7951 6.112 86.4591 5.464 87.3231 5C88.2031 4.52 89.2031 4.28 90.3231 4.28ZM105.239 17.12C104.023 17.12 102.927 16.848 101.951 16.304C100.975 15.744 100.207 14.976 99.6471 14C99.0871 13.024 98.8071 11.92 98.8071 10.688C98.8071 9.456 99.0871 8.352 99.6471 7.376C100.207 6.4 100.975 5.64 101.951 5.096C102.927 4.552 104.023 4.28 105.239 4.28C106.455 4.28 107.551 4.552 108.527 5.096C109.503 5.64 110.263 6.4 110.807 7.376C111.367 8.352 111.647 9.456 111.647 10.688C111.647 11.92 111.367 13.024 110.807 14C110.263 14.976 109.503 15.744 108.527 16.304C107.551 16.848 106.455 17.12 105.239 17.12ZM105.239 15.608C106.135 15.608 106.935 15.408 107.639 15.008C108.359 14.592 108.919 14.008 109.319 13.256C109.719 12.504 109.919 11.648 109.919 10.688C109.919 9.728 109.719 8.872 109.319 8.12C108.919 7.368 108.359 6.792 107.639 6.392C106.935 5.976 106.135 5.768 105.239 5.768C104.343 5.768 103.535 5.976 102.815 6.392C102.111 6.792 101.551 7.368 101.135 8.12C100.735 8.872 100.535 9.728 100.535 10.688C100.535 11.648 100.735 12.504 101.135 13.256C101.551 14.008 102.111 14.592 102.815 15.008C103.535 15.408 104.343 15.608 105.239 15.608ZM116.758 6.848C117.158 6 117.75 5.36 118.534 4.928C119.334 4.496 120.318 4.28 121.486 4.28V5.936L121.078 5.912C119.75 5.912 118.71 6.32 117.958 7.136C117.206 7.952 116.83 9.096 116.83 10.568V17H115.126V4.376H116.758V6.848ZM135.446 11.216H124.886C124.982 12.528 125.486 13.592 126.398 14.408C127.31 15.208 128.462 15.608 129.854 15.608C130.638 15.608 131.358 15.472 132.014 15.2C132.67 14.912 133.238 14.496 133.718 13.952L134.678 15.056C134.118 15.728 133.414 16.24 132.566 16.592C131.734 16.944 130.814 17.12 129.806 17.12C128.51 17.12 127.358 16.848 126.35 16.304C125.358 15.744 124.582 14.976 124.022 14C123.462 13.024 123.182 11.92 123.182 10.688C123.182 9.456 123.446 8.352 123.974 7.376C124.518 6.4 125.254 5.64 126.182 5.096C127.126 4.552 128.182 4.28 129.35 4.28C130.518 4.28 131.566 4.552 132.494 5.096C133.422 5.64 134.15 6.4 134.678 7.376C135.206 8.336 135.47 9.44 135.47 10.688L135.446 11.216ZM129.35 5.744C128.134 5.744 127.11 6.136 126.278 6.92C125.462 7.688 124.998 8.696 124.886 9.944H133.838C133.726 8.696 133.254 7.688 132.422 6.92C131.606 6.136 130.582 5.744 129.35 5.744Z" fill="url(#paint0_linear_3_83)"/>
<defs>
<linearGradient id="paint0_linear_3_83" x1="67.5" y1="-6" x2="67.5" y2="23" gradientUnits="userSpaceOnUse">
<stop stop-color="#04FF0E"/>
<stop offset="1" stop-color="#FFFF00"/>
</linearGradient>
</defs>
</svg>
