<svg width="73" height="96" viewBox="0 0 73 96" fill="none" xmlns="http://www.w3.org/2000/svg">
<path d="M70 23.3448V80.9314C70 80.9314 69.8674 85.4138 67.2371 89.2069C64.6068 93 58.6031 93 58.6031 93H14.0515C14.0515 93 9.23629 93 6.45361 90.5862C3 87.5904 3 80.9314 3 80.9314V13.0003C3 13.0003 3 8.51758 6.10825 5.75896C9.21649 3.00034 13.7062 3 13.7062 3C13.7062 3 35.597 3 49.6237 3M70 23.3448C70 23.3448 57.5811 10.9451 49.6237 3M70 23.3448H55.4948C50.7752 22.8683 49.4589 21.9877 49.6237 16.4486C49.6237 16.4486 49.6237 7.71322 49.6237 3M15.0876 37.4831H57.2217M15.0876 51.2762H57.2217M15.0876 64.3796H57.2217M15.0876 78.5176H57.2217" stroke="url(#paint0_linear_314_534)" stroke-width="5" stroke-linecap="round"/>
<defs>
<linearGradient id="paint0_linear_314_534" x1="36.5" y1="3" x2="36.5" y2="93" gradientUnits="userSpaceOnUse">
<stop stop-color="#04FF0E"/>
<stop offset="1" stop-color="#FFFF00"/>
</linearGradient>
</defs>
</svg>
