<svg width="118" height="193" viewBox="0 0 118 193" fill="none" xmlns="http://www.w3.org/2000/svg">
<g clip-path="url(#clip0_3_126)">
<path d="M65.7785 147.535L54.7325 144.278C37.781 139.274 20.8219 134.275 3.8553 129.284C3.4321 129.192 3.05746 128.983 2.79108 128.691C2.52469 128.398 2.38192 128.039 2.38553 127.67C0.557839 115.872 2.53839 103.877 8.1177 92.9529C12.4715 84.217 19.0988 76.4218 27.5075 70.1459C34.2497 65.231 40.4657 59.8234 46.0834 53.9861C59.9521 39.3692 69.5293 22.1874 74.0319 3.8451C74.0803 3.58616 74.1521 3.33074 74.2467 3.08105C74.6537 3.48218 74.9477 3.7305 75.1964 4.03612C83.8632 13.9378 89.1241 25.6692 90.3989 37.9363C91.6737 50.2034 88.9129 62.5297 82.421 73.5555C74.6927 86.7709 69.4806 100.934 66.9769 115.521C65.1938 125.916 64.8145 136.447 65.8463 146.914C65.8363 147.122 65.8137 147.329 65.7785 147.535Z" stroke="white" stroke-width="3" stroke-miterlimit="10"/>
<path d="M15.1274 173.102C20.5118 169.444 25.437 165.328 29.8253 160.82C34.1765 156.337 37.9655 151.485 41.1313 146.341C45.4276 147.602 49.6787 148.843 53.9298 150.104C59.2097 151.67 64.4783 153.265 69.7582 154.784C70.0362 154.831 70.3229 154.829 70.5996 154.776C70.8763 154.723 71.1367 154.622 71.3637 154.478C83.7099 145.462 96.0335 136.431 108.334 127.383L115.943 121.815C116.068 123.448 116.249 124.833 116.283 126.218C116.757 146.274 109.42 164.096 94.0888 179.491C89.6863 183.905 84.6676 187.853 79.1423 191.248C78.8794 191.393 78.5838 191.489 78.2743 191.532C77.9649 191.575 77.6482 191.563 77.3446 191.497C56.8957 185.486 36.4544 179.456 16.0206 173.408C15.7128 173.328 15.4138 173.226 15.1274 173.102V173.102Z" stroke="white" stroke-width="3" stroke-miterlimit="10"/>
<path d="M75.8748 106.582L111.783 117.183L72.7204 145.835C70.7192 140.792 72.856 114.251 75.8748 106.582Z" stroke="white" stroke-width="3" stroke-miterlimit="10"/>
</g>
<defs>
<clipPath id="clip0_3_126">
<rect width="118" height="193" fill="white"/>
</clipPath>
</defs>
</svg>
