<svg width="27" height="27" viewBox="0 0 27 27" fill="none" xmlns="http://www.w3.org/2000/svg">
<path d="M10.2307 16.5773C11.4307 17.728 12.8373 18.664 14.392 19.328L15.084 19.6227L17.2107 17.4627C17.7387 16.9267 18.5027 16.6947 19.24 16.8493L24.392 17.928C25.264 18.1133 25.8867 18.8827 25.8867 19.7733V23.4827C25.8867 24.8093 24.812 25.884 23.4853 25.884H22.3453C17.1 25.884 11.924 24.1467 8.00933 20.656C7.68667 20.3693 7.37333 20.072 7.068 19.768L7.11733 19.8173C6.812 19.512 6.516 19.1987 6.22933 18.876C2.73733 14.9627 1 9.78667 1 4.54133V3.40133C1 2.07467 2.07467 1 3.40133 1H7.11067C8.00133 1 8.77067 1.62267 8.956 2.49467L10.036 7.64667C10.1893 8.38267 9.95867 9.148 9.42267 9.676L7.26267 11.8027L7.55733 12.4947C8.22133 14.048 9.07867 15.3773 10.2307 16.5773Z" stroke="white" stroke-width="2" stroke-miterlimit="10" stroke-linecap="round" stroke-linejoin="round"/>
</svg>
