<svg width="38" height="38" viewBox="0 0 38 38" fill="none" xmlns="http://www.w3.org/2000/svg">
<path d="M5.79646 18.7695C5.21097 19.3555 5.21146 20.3053 5.79754 20.8908C6.38363 21.4763 7.33337 21.4758 7.91886 20.8897L5.79646 18.7695ZM19.0009 7.67396L20.0622 6.61392C19.7808 6.33225 19.3991 6.17397 19.001 6.17396C18.6029 6.17394 18.2211 6.33219 17.9397 6.61384L19.0009 7.67396ZM30.0811 20.8896C30.6665 21.4757 31.6162 21.4763 32.2024 20.8909C32.7885 20.3054 32.7891 19.3557 32.2036 18.7695L30.0811 20.8896ZM17.5009 36C17.5009 36.8284 18.1725 37.5 19.0009 37.5C19.8293 37.5 20.5009 36.8284 20.5009 36H17.5009ZM20.5009 7.71042C20.5009 6.882 19.8293 6.21042 19.0009 6.21042C18.1725 6.21042 17.5009 6.882 17.5009 7.71042H20.5009ZM36 3.5C36.8284 3.5 37.5 2.82843 37.5 2C37.5 1.17157 36.8284 0.5 36 0.5V3.5ZM2 0.5C1.17157 0.5 0.5 1.17157 0.5 2C0.5 2.82843 1.17157 3.5 2 3.5V0.5ZM7.91886 20.8897L20.0621 8.73408L17.9397 6.61384L5.79646 18.7695L7.91886 20.8897ZM17.9396 8.734L30.0811 20.8896L32.2036 18.7695L20.0622 6.61392L17.9396 8.734ZM20.5009 36V7.71042H17.5009V36H20.5009ZM36 0.5H2V3.5H36V0.5Z" fill="url(#paint0_linear_322_164)"/>
<defs>
<linearGradient id="paint0_linear_322_164" x1="19" y1="2" x2="19" y2="36" gradientUnits="userSpaceOnUse">
<stop stop-color="#04FF0E"/>
<stop offset="1" stop-color="#FFFF00"/>
</linearGradient>
</defs>
</svg>
