<svg width="109" height="86" viewBox="0 0 109 86" fill="none" xmlns="http://www.w3.org/2000/svg">
<path d="M13.2082 80.0567C13.2082 80.0567 13.4884 82.3978 15.1862 83.0972C16.5001 83.6385 19.8013 83.773 19.8013 83.773H99.9072C99.9072 83.773 103.302 83.773 105.182 81.408C106.571 79.6599 106.5 75.3271 106.5 75.3271V17.895C106.5 17.895 106.5 16.8813 105.511 15.5299C104.522 14.1786 103.204 14.1786 103.204 14.1786M10.2414 2.01667H89.0287C89.0287 2.01667 93.0723 2.55767 94.6328 4.38135C96.0556 6.04422 96.281 9.7869 96.281 9.7869V64.1785C96.281 64.1785 96.1443 68.1706 94.6328 69.9216C93.0645 71.7383 89.0287 72.2866 89.0287 72.2866H10.2414C10.2414 72.2866 5.46972 72.2856 3.64827 70.2596C2.01865 68.4469 2 64.1785 2 64.1785V9.7869C2 9.7869 2 6.40804 3.64827 4.04351C5.29654 1.67899 10.2414 2.01667 10.2414 2.01667ZM10.2414 63.1648L21.1199 48.9757L29.0316 56.0703L47.4922 34.1109L54.7446 41.8812L69.5791 22.2867L87.71 48.9757V63.1648H10.2414Z" stroke="url(#paint0_linear_322_163)" stroke-width="4" stroke-linecap="round"/>
<ellipse cx="26.3944" cy="19.5839" rx="9.23031" ry="9.45941" fill="url(#paint1_linear_322_163)"/>
<path d="M20.4608 50.6651L29.0318 56.7461L47.1628 35.8003L55.0744 43.9084L68.9199 23.6382L86.3916 47.2867V62.8272H11.2305L20.4608 50.6651Z" fill="url(#paint2_linear_322_163)"/>
<defs>
<linearGradient id="paint0_linear_322_163" x1="54.2501" y1="2.0165" x2="54.2501" y2="83.7729" gradientUnits="userSpaceOnUse">
<stop stop-color="#04FF0E"/>
<stop offset="1" stop-color="#FFFF00"/>
</linearGradient>
<linearGradient id="paint1_linear_322_163" x1="26.3944" y1="10.1245" x2="26.3944" y2="29.0433" gradientUnits="userSpaceOnUse">
<stop stop-color="#20FF0D"/>
<stop offset="1" stop-color="#5AFF0A"/>
</linearGradient>
<linearGradient id="paint2_linear_322_163" x1="48.811" y1="23.6382" x2="48.811" y2="62.8272" gradientUnits="userSpaceOnUse">
<stop stop-color="#41FF0B"/>
<stop offset="1" stop-color="#C3FF04"/>
</linearGradient>
</defs>
</svg>
